<?xml version="1.0" encoding="UTF-8" standalone="no"?>
<!-- Created with Inkscape (http://www.inkscape.org/) -->

<svg
   xmlns:dc="http://purl.org/dc/elements/1.1/"
   xmlns:cc="http://creativecommons.org/ns#"
   xmlns:rdf="http://www.w3.org/1999/02/22-rdf-syntax-ns#"
   xmlns:svg="http://www.w3.org/2000/svg"
   xmlns="http://www.w3.org/2000/svg"
   xmlns:sodipodi="http://sodipodi.sourceforge.net/DTD/sodipodi-0.dtd"
   xmlns:inkscape="http://www.inkscape.org/namespaces/inkscape"
   id="svg3089"
   sodipodi:version="0.32"
   inkscape:version="0.48.4 r9939"
   width="962.26422"
   height="84.324242"
   version="1.0"
   sodipodi:docname="Grass.svg"
   inkscape:output_extension="org.inkscape.output.svg.inkscape">
  <metadata
     id="metadata3094">
    <rdf:RDF>
      <cc:Work
         rdf:about="">
        <dc:format>image/svg+xml</dc:format>
        <dc:type
           rdf:resource="http://purl.org/dc/dcmitype/StillImage" />
        <dc:title></dc:title>
      </cc:Work>
    </rdf:RDF>
  </metadata>
  <defs
     id="defs3092">
    <inkscape:perspective
       sodipodi:type="inkscape:persp3d"
       inkscape:vp_x="0 : 526.18109 : 1"
       inkscape:vp_y="0 : 1000 : 0"
       inkscape:vp_z="744.09448 : 526.18109 : 1"
       inkscape:persp3d-origin="372.04724 : 350.78739 : 1"
       id="perspective3096" />
  </defs>
  <sodipodi:namedview
     inkscape:window-height="716"
     inkscape:window-width="1280"
     inkscape:pageshadow="2"
     inkscape:pageopacity="0.0"
     guidetolerance="10.0"
     gridtolerance="10.0"
     objecttolerance="10.0"
     borderopacity="1.0"
     bordercolor="#666666"
     pagecolor="#ffffff"
     id="base"
     showgrid="false"
     inkscape:zoom="0.77164712"
     inkscape:cx="476.66912"
     inkscape:cy="-9.1783712"
     inkscape:window-x="86"
     inkscape:window-y="24"
     inkscape:current-layer="svg3089"
     fit-margin-top="0"
     fit-margin-left="0"
     fit-margin-right="0"
     fit-margin-bottom="0"
     showborder="false"
     inkscape:showpageshadow="false"
     inkscape:window-maximized="0" />
  <path
     style="fill:#000000"
     d="M 237.00001,84.000005 0,83.500005 0.253253,68.628315 C 0.506055,53.783072 0.511686,53.750725 3.419861,50.438497 6.904586,46.469615 8.734275,38.763194 7.975671,31.250005 7.655865,28.082663 7.839847,26 8.439456,26 c 2.492087,0 12.719552,12.783498 17.01728,21.270211 0.904365,1.785846 1.746836,2.426222 2.370899,1.802159 C 28.670633,48.229372 28.850934,31.084025 28.075523,25.5 27.845794,23.84564 26.433413,16.83119 25.961316,15 25.724357,14.08088 23.446274,8.72209 22.953662,7.92503 22.686205,7.49227 22.869732,6.88953 23.361497,6.5856 c 1.592676,-0.98432 9.752222,6.13781 13.241743,11.55818 4.925174,7.65041 5.435892,8.568102 9.520052,17.106225 2.038942,4.2625 4.03403,7.75 4.433529,7.75 0.3995,0 1.029394,-1.2375 1.399765,-2.75 C 53.744105,32.950238 61.77255,20 64.510493,20 c 0.33999,0 0.49176,3.87243 0.33728,8.605395 -0.22369,6.852965 0.10174,9.347589 1.59804,12.25 2.466,4.783376 7.63544,9.660043 12.304195,11.607349 3.68714,1.537883 3.75075,1.52616 3.79485,-0.699319 0.13459,-6.79213 1.24607,-14.256565 3.38954,-22.76342 0.20788,-0.825 0.69803,-2.85 1.08924,-4.500005 1.81764,-7.66627 12.42208,-25.8876199 14.093382,-24.21632 0.28294,0.28294 -0.004,2.43854 -0.63691,4.79022 -1.222962,4.54173 -1.431932,14.2774 -0.46891,21.846161 1.15894,9.108606 2.87282,17.079944 3.67227,17.079944 0.4491,0 0.81654,-0.402001 0.81654,-0.893336 0,-1.360362 9.29856,-15.106664 10.21877,-15.106664 0.44327,0 0.64161,2.5875 0.44074,5.75 -0.2475,3.896594 0.21361,7.246333 1.43056,10.392216 2.21953,5.737638 7.93732,15.163732 8.72213,14.378918 2.18737,-2.18737 1.726,-19.047875 -0.75014,-27.413506 -0.55226,-1.865805 -0.78481,-3.747211 -0.51677,-4.180902 0.26803,-0.433691 0.03,-1.071181 -0.52898,-1.416641 C 122.0502,24.60397 122.26659,23 123.85495,23 c 1.5233,0 10.69409,9.354584 12.5254,12.776422 1.32495,2.475679 3.11966,2.966878 3.11966,0.853826 0,-2.358555 6.71608,-9.158634 11.71384,-11.860358 5.06539,-2.73828 13.13168,-5.2577 14.01267,-4.37671 0.28854,0.28855 -0.822,1.65774 -2.46787,3.04265 -1.64587,1.38491 -4.00076,4.861785 -5.23308,7.726392 -1.89372,4.402072 -2.15686,6.379461 -1.6998,12.77308 0.5282,7.388781 2.1514,14.812964 3.56695,16.314485 0.38877,0.41238 4.03711,-5.10012 8.10741,-12.25 4.07031,-7.14988 7.72371,-12.999782 8.11866,-12.999782 0.39496,0 1.69502,1.580692 2.88904,3.51265 2.07904,3.36396 4.73166,5.48735 6.85501,5.48735 4.63243,0 8.48652,-15.681565 8.17191,-33.250005 -0.10363,-5.78707 0.19099,-7.74012 1.16324,-7.711 2.7927,0.08366 12.20858,15.95802 13.41645,22.61899 0.26946,1.48603 0.71049,3.05873 0.98005,3.494892 0.26957,0.436162 0.70614,2.480247 0.97016,4.542412 0.4578,3.5757 2.43536,7.198822 2.43536,4.46187 0,-2.870261 17.80303,-19.020804 19.308,-17.515824 0.27503,0.27502 -0.12049,1.69612 -0.87892,3.158 -1.63584,3.153082 -1.1549,21.749409 0.61941,23.950665 0.11083,0.1375 0.26465,0.5875 0.34182,1 1.34955,7.213589 9.63635,1.255545 11.63339,-8.364177 1.55319,-7.481681 1.37934,-23.895828 -0.34666,-32.729688 -0.0974,-0.49838 0.38546,-1.11239 1.07296,-1.36447 0.6875,-0.25208 1.25,0.02917 1.25,0.625 0,0.59583 0.61639,1.08333 1.36976,1.08333 2.13568,0 9.02104,6.49506 12.17514,11.48497 1.56966,2.48327 3.17929,4.51503 3.57696,4.51503 0.39767,0 1.24148,-1.57091 1.87514,-3.49092 0.63366,-1.92001 2.65764,-4.95751 4.49773,-6.75 7.2437,-7.05632 7.7923,-6.94743 6.85741,1.36105 -1.55774,13.843659 -0.1801,27.117911 3.09658,29.83732 1.18689,0.985024 1.61606,0.51571 2.48734,-2.719981 1.41906,-5.270009 8.39896,-15.891632 10.98171,-16.711369 1.14523,-0.36348 2.08223,-1.03169 2.08223,-1.4849 0,-1.12548 7.9116,-4.21387 9.02771,-3.52407 0.52614,0.32518 0.52801,1.52123 0.005,2.89812 -0.74976,1.97202 -0.70315,15.063187 0.069,19.383308 0.37047,2.072676 7.92736,10.201447 9.48376,10.201447 0.77963,0 1.44702,-1.010312 1.48629,-2.25 0.13994,-4.417039 1.0298,-10.312868 2.15076,-14.25 0.62638,-2.2 1.22641,-4.3375 1.33341,-4.75 0.107,-0.4125 0.28424,-0.8625 0.39386,-1 0.10962,-0.1375 0.39075,-1.280182 0.62472,-2.539293 1.0585,-5.696132 8.52104,-17.488512 15.28613,-24.155282 4.98571,-4.91325 6.25653,-4.2701 3.36954,1.70528 -2.3426,4.84862 -2.26685,18.03834 0.16707,29.092189 2.36946,10.761084 2.83801,11.136002 5.52893,4.424038 C 346.50163,31.605873 351.62842,23 353.12288,23 c 2.19801,0 6.34049,6.064499 7.96903,11.666484 1.72705,5.940835 2.48883,5.955645 4.36489,0.08486 0.65885,-2.061766 3.07571,-5.711712 5.3708,-8.110993 4.14678,-4.335037 13.67289,-11.348127 13.67289,-10.065937 0,0.36877 0.6039,0.16929 1.34201,-0.44328 0.7381,-0.61258 1.6381,-0.81768 2,-0.45578 0.36189,0.36189 0.65799,0.13299 0.65799,-0.50868 0,-0.64167 0.3375,-1.09522 0.75,-1.00791 0.4125,0.08732 1.52265,-0.18013 2.46701,-0.59433 0.94436,-0.4142 2.29436,-0.51592 3,-0.22606 0.80779,0.33183 0.44962,0.78035 -0.96701,1.21096 -1.2375,0.37617 -2.25,0.97355 -2.25,1.32752 0,0.35398 -1.02808,1.76399 -2.28462,3.13337 -1.25655,1.36938 -3.27814,4.81528 -4.49242,7.657551 -3.525,8.250898 -5.60369,27.360864 -3.1417,28.882456 2.33245,1.441532 12.4309,-10.861 13.56346,-16.523819 0.33748,-1.687412 0.97723,-3.292755 1.42166,-3.56743 1.55347,-0.960094 10.60667,19.642999 9.45216,21.511032 -0.24996,0.404443 0.0991,1.492384 0.77565,2.417647 1.10831,1.5157 1.66375,1.265629 5.60893,-2.525258 8.49398,-8.161771 12.21818,-20.812889 12.28502,-41.732199 l 0.0404,-12.6302 3.30318,3.8211 c 4.08658,4.72731 8.03712,12.67744 10.39265,20.914318 1.98071,6.926151 2.07567,7.32714 2.07567,8.764587 0,2.095222 1.59938,0.839103 4.22637,-3.319288 2.56539,-4.060903 9.94306,-11.680717 11.30952,-11.680717 0.34266,0 0.30932,1.42825 -0.0741,3.17389 -1.62526,7.399737 -0.80016,14.696526 2.39595,21.188743 1.70118,3.455583 3.99565,7.099723 5.09883,8.098089 1.95009,1.764804 2.03198,1.7489 2.94904,-0.572754 1.07866,-2.730781 0.80016,-22.498943 -0.35415,-25.137963 -2.2724,-5.195205 6.23812,1.952739 11.13472,9.351998 3.37123,5.09427 4.5198,3.633738 3.81565,-4.851998 -0.31101,-3.748012 -0.1283,-6.250005 0.45643,-6.250005 2.47482,0 12.71761,12.81683 16.99846,21.270211 2.304,4.549706 3.35116,1.604518 3.18864,-8.968231 -0.1652,-10.747854 -0.61387,-15.12586 -2.05499,-20.05198 -0.52293,-1.7875 -0.79628,-3.25 -0.60744,-3.25 0.18884,0 -0.47621,-1.6849 -1.47788,-3.74423 -3.11876,-6.41183 -0.77694,-6.44584 6.10039,-0.08858 3.15439,2.91586 4.92938,5.30755 10.64933,14.34931 0.69014,1.090929 2.90199,5.471005 4.91523,9.733505 2.01324,4.2625 3.9873,7.75 4.3868,7.75 0.3995,0 1.02939,-1.2375 1.39977,-2.75 1.78752,-7.299767 9.81596,-20.250005 12.5539,-20.250005 0.33999,0 0.49176,3.87243 0.33728,8.605395 -0.22369,6.852965 0.10174,9.347589 1.59804,12.25 2.46601,4.783376 7.63544,9.660043 12.30419,11.607349 3.68714,1.537883 3.75075,1.52616 3.79485,-0.699319 0.13202,-6.662126 1.4749,-15.688816 3.31209,-22.26342 0.15369,-0.55 0.63033,-2.575 1.0592,-4.500005 1.74384,-7.82726 12.45222,-26.4649699 14.20087,-24.71632 0.28294,0.28294 -0.006,2.44746 -0.64225,4.81005 -1.87479,6.96246 -1.33156,18.81273 1.61162,35.156275 0.37142,2.0625 1.06643,3.75 1.54446,3.75 0.47804,0 0.86916,-0.402001 0.86916,-0.893336 0,-1.360362 9.29856,-15.106664 10.21877,-15.106664 0.44327,0 0.64161,2.5875 0.44074,5.75 -0.2475,3.896594 0.21361,7.246333 1.43056,10.392216 2.21953,5.737638 7.93732,15.163732 8.72213,14.378918 2.18737,-2.18737 1.726,-19.047875 -0.75014,-27.413506 -0.55226,-1.865805 -0.78481,-3.747211 -0.51677,-4.180902 0.26803,-0.433691 0.03,-1.071181 -0.52898,-1.416641 -1.46612,-0.90612 -1.24973,-2.51009 0.33863,-2.51009 1.5233,0 10.69409,9.354584 12.5254,12.776422 1.32495,2.475679 3.11966,2.966878 3.11966,0.853826 0,-2.358555 6.71608,-9.158634 11.71384,-11.860358 5.06539,-2.73828 13.13168,-5.2577 14.01267,-4.37671 0.28854,0.28855 -0.822,1.65774 -2.46787,3.04265 -1.64587,1.38491 -4.00076,4.861785 -5.23308,7.726392 -1.89372,4.402072 -2.15686,6.379461 -1.6998,12.77308 0.5282,7.388781 2.1514,14.812964 3.56695,16.314485 0.38877,0.41238 4.03711,-5.10012 8.10741,-12.25 4.07031,-7.14988 7.72371,-12.999782 8.11866,-12.999782 0.39496,0 1.69502,1.580692 2.88904,3.51265 2.07904,3.36396 4.73166,5.48735 6.85501,5.48735 4.63243,0 8.48652,-15.681565 8.17191,-33.250005 -0.10363,-5.78707 0.19099,-7.74012 1.16324,-7.711 2.7927,0.08366 12.20858,15.95802 13.41645,22.61899 0.26946,1.48603 0.71049,3.05873 0.98005,3.494892 0.26957,0.436162 0.70614,2.480247 0.97016,4.542412 0.4578,3.5757 2.43536,7.198822 2.43536,4.46187 0,-2.870261 17.80303,-19.020804 19.308,-17.515824 0.27503,0.27502 -0.12049,1.69612 -0.87892,3.158 -1.63584,3.153082 -1.1549,21.749409 0.61941,23.950665 0.11083,0.1375 0.26465,0.5875 0.34182,1 1.34955,7.213589 9.63635,1.255545 11.63339,-8.364177 1.55319,-7.481681 1.37934,-23.895828 -0.34666,-32.729688 -0.0974,-0.49838 0.38546,-1.11239 1.07296,-1.36447 0.6875,-0.25208 1.25,0.02917 1.25,0.625 0,0.59583 0.61639,1.08333 1.36976,1.08333 2.13568,0 9.02104,6.49506 12.17514,11.48497 1.56966,2.48327 3.17929,4.51503 3.57696,4.51503 0.39767,0 1.24148,-1.57091 1.87514,-3.49092 0.63366,-1.92001 2.65764,-4.95751 4.49773,-6.75 7.2437,-7.05632 7.7923,-6.94743 6.85741,1.36105 -1.55774,13.843659 -0.1801,27.117911 3.09658,29.83732 1.18626,0.984501 1.61321,0.526292 2.46819,-2.648888 1.20666,-4.481169 6.42691,-13.048252 9.46913,-15.54002 1.16268,-0.952302 2.68657,-2.216992 3.38643,-2.810412 2.07533,-1.75972 8.24232,-4.06702 9.23334,-3.45454 0.54718,0.33818 0.55785,1.51387 0.0264,2.91166 -0.74976,1.97202 -0.70315,15.063187 0.069,19.383308 0.37047,2.072676 7.92736,10.201447 9.48376,10.201447 0.77963,0 1.44702,-1.010312 1.48629,-2.25 0.13994,-4.417039 1.0298,-10.312868 2.15076,-14.25 0.62638,-2.2 1.22641,-4.3375 1.33341,-4.75 0.107,-0.4125 0.28424,-0.8625 0.39386,-1 0.10962,-0.1375 0.39075,-1.280182 0.62472,-2.539293 0.54746,-2.946082 3.87922,-9.495502 7.73783,-15.210712 2.95856,-4.38206 11.07298,-13 12.24047,-13 0.69091,0 -0.27967,3.49565 -1.94357,7 -1.63559,3.44474 -1.20146,18.8476 0.78504,27.852899 2.37395,10.761765 2.8412,11.13544 5.5319,4.424038 3.07544,-7.671064 8.20223,-16.276937 9.69669,-16.276937 2.19801,0 6.34049,6.064499 7.96903,11.666484 1.72714,5.941149 2.4888,5.955722 4.36533,0.08352 0.65909,-2.0625 1.61346,-3.75 2.1208,-3.75 0.50735,0 0.92245,-0.57598 0.92245,-1.279955 0,-0.703975 1.4625,-2.642864 3.25,-4.30864 3.9231,-3.65596 12.75,-9.77386 12.75,-8.837 0,0.36877 0.6039,0.16929 1.34201,-0.44328 0.7381,-0.61258 1.6381,-0.81768 2,-0.45578 0.36189,0.36189 0.65799,0.13299 0.65799,-0.50868 0,-0.64167 0.3375,-1.09522 0.75,-1.00791 0.4125,0.08732 1.52265,-0.18013 2.46701,-0.59433 0.94436,-0.4142 2.29436,-0.51592 3,-0.22606 0.80779,0.33183 0.44962,0.78035 -0.96701,1.21096 -1.2375,0.37617 -2.25,0.97355 -2.25,1.32752 0,0.35398 -1.02808,1.76399 -2.28462,3.13337 -1.25655,1.36938 -3.27814,4.81528 -4.49242,7.657551 -3.525,8.250898 -5.60369,27.360864 -3.1417,28.882456 2.33245,1.441532 12.4309,-10.861 13.56346,-16.523819 0.33748,-1.687412 0.97723,-3.292755 1.42166,-3.56743 1.55347,-0.960094 10.60667,19.642999 9.45216,21.511032 -0.24996,0.404443 0.0991,1.492384 0.77565,2.417647 1.10831,1.5157 1.66375,1.265629 5.60893,-2.525258 8.49398,-8.161771 12.21818,-20.812889 12.28502,-41.732199 l 0.0404,-12.6302 3.30318,3.8211 c 4.16311,4.81584 8.0457,12.70745 10.53564,21.414318 1.06398,3.720523 1.93409,6.877087 1.93359,7.014587 -5e-4,0.1375 -9.1e-4,0.7 -9.1e-4,1.25 0,2.095222 1.59938,0.839103 4.22637,-3.319288 2.56539,-4.060903 9.94306,-11.680717 11.30952,-11.680717 0.34266,0 0.30932,1.42825 -0.0741,3.17389 -1.62526,7.399737 -0.80016,14.696526 2.39595,21.188743 1.70118,3.455583 3.99565,7.099723 5.09883,8.098089 1.95009,1.764804 2.03198,1.7489 2.94904,-0.572754 1.07866,-2.730781 0.80016,-22.498943 -0.35415,-25.137963 -2.30667,-5.273555 5.8758,1.650329 11.34572,9.600583 9.06321,13.172932 12.69572,23.972641 11.71028,34.815499 -0.33322,3.666346 -0.87936,7.378846 -1.21365,8.25 -0.53899,1.40459 -4.67899,1.583918 -36.56656,1.583918 -21.84515,0 -36.68562,0.389005 -37.81066,0.991111 -2.28796,1.224476 -316.20409,1.71208 -649.51661,1.008889 z"
     id="path3100"
     inkscape:connector-curvature="0" />
</svg>
