<?xml version="1.0" encoding="UTF-8" standalone="no"?>
<!-- Created with Inkscape (http://www.inkscape.org/) -->
<svg
   xmlns:dc="http://purl.org/dc/elements/1.1/"
   xmlns:cc="http://creativecommons.org/ns#"
   xmlns:rdf="http://www.w3.org/1999/02/22-rdf-syntax-ns#"
   xmlns:svg="http://www.w3.org/2000/svg"
   xmlns="http://www.w3.org/2000/svg"
   xmlns:sodipodi="http://sodipodi.sourceforge.net/DTD/sodipodi-0.dtd"
   xmlns:inkscape="http://www.inkscape.org/namespaces/inkscape"
   id="svg3089"
   sodipodi:version="0.32"
   inkscape:version="0.46"
   width="997"
   height="106"
   version="1.0"
   sodipodi:docname="Grass.svg"
   inkscape:output_extension="org.inkscape.output.svg.inkscape">
  <metadata
     id="metadata3094">
    <rdf:RDF>
      <cc:Work
         rdf:about="">
        <dc:format>image/svg+xml</dc:format>
        <dc:type
           rdf:resource="http://purl.org/dc/dcmitype/StillImage" />
      </cc:Work>
    </rdf:RDF>
  </metadata>
  <defs
     id="defs3092">
    <inkscape:perspective
       sodipodi:type="inkscape:persp3d"
       inkscape:vp_x="0 : 526.18109 : 1"
       inkscape:vp_y="0 : 1000 : 0"
       inkscape:vp_z="744.09448 : 526.18109 : 1"
       inkscape:persp3d-origin="372.04724 : 350.78739 : 1"
       id="perspective3096" />
  </defs>
  <sodipodi:namedview
     inkscape:window-height="1002"
     inkscape:window-width="1280"
     inkscape:pageshadow="2"
     inkscape:pageopacity="0.0"
     guidetolerance="10.0"
     gridtolerance="10.0"
     objecttolerance="10.0"
     borderopacity="1.0"
     bordercolor="#666666"
     pagecolor="#ffffff"
     id="base"
     showgrid="false"
     inkscape:zoom="0.54563691"
     inkscape:cx="498.5"
     inkscape:cy="53"
     inkscape:window-x="1148"
     inkscape:window-y="-4"
     inkscape:current-layer="svg3089" />
  <path
     style="fill:#000000"
     d="M 258.83089,95.334559 L 21.830882,94.834559 L 22.084135,79.962869 C 22.336937,65.117626 22.342568,65.085279 25.250743,61.773051 C 28.735468,57.804169 30.565157,50.097748 29.806553,42.584559 C 29.486747,39.417217 29.670729,37.334554 30.270338,37.334554 C 32.762425,37.334554 42.98989,50.118052 47.287618,58.604765 C 48.191983,60.390611 49.034454,61.030987 49.658517,60.406924 C 50.501515,59.563926 50.681816,42.418579 49.906405,36.834554 C 49.676676,35.180194 48.264295,28.165744 47.792198,26.334554 C 47.555239,25.415434 45.277156,20.056644 44.784544,19.259584 C 44.517087,18.826824 44.700613,18.224084 45.192379,17.920154 C 46.785055,16.935834 54.944601,24.057964 58.434122,29.478334 C 63.359296,37.128744 63.870014,38.046436 67.954174,46.584559 C 69.993116,50.847059 71.988204,54.334559 72.387703,54.334559 C 72.787203,54.334559 73.417097,53.097059 73.787468,51.584559 C 75.574987,44.284792 83.603432,31.334554 86.341375,31.334554 C 86.681365,31.334554 86.833135,35.206984 86.678655,39.939949 C 86.454965,46.792914 86.780395,49.287538 88.276695,52.189949 C 90.742695,56.973325 95.912135,61.849992 100.58089,63.797298 C 104.26803,65.335181 104.33164,65.323458 104.37574,63.097979 C 104.51033,56.305849 105.62181,48.841414 107.76528,40.334559 C 107.97316,39.509559 108.46331,37.484559 108.85452,35.834554 C 110.67216,28.168284 121.2766,9.9469341 122.9479,11.618234 C 123.23084,11.901174 122.94423,14.056774 122.31099,16.408454 C 121.08803,20.950184 120.87906,30.685854 121.84208,38.254615 C 123.00102,47.363221 124.7149,55.334559 125.51435,55.334559 C 125.96345,55.334559 126.33089,54.932558 126.33089,54.441223 C 126.33089,53.080861 135.62945,39.334559 136.54966,39.334559 C 136.99293,39.334559 137.19127,41.922059 136.9904,45.084559 C 136.7429,48.981153 137.20401,52.330892 138.42096,55.476775 C 140.64049,61.214413 146.35828,70.640507 147.14309,69.855693 C 149.33046,67.668323 148.86909,50.807818 146.39295,42.442187 C 145.84069,40.576382 145.60814,38.694976 145.87618,38.261285 C 146.14421,37.827594 145.90617,37.190104 145.3472,36.844644 C 143.88108,35.938524 144.09747,34.334554 145.68583,34.334554 C 147.20913,34.334554 156.37992,43.689138 158.21123,47.110976 C 159.53618,49.586655 161.33089,50.077854 161.33089,47.964802 C 161.33089,45.606247 168.04697,38.806168 173.04473,36.104444 C 178.11012,33.366164 186.17641,30.846744 187.0574,31.727734 C 187.34594,32.016284 186.2354,33.385474 184.58953,34.770384 C 182.94366,36.155294 180.58877,39.632169 179.35645,42.496776 C 177.46273,46.898848 177.19959,48.876237 177.65665,55.269856 C 178.18485,62.658637 179.80805,70.08282 181.2236,71.584341 C 181.61237,71.996721 185.26071,66.484221 189.33101,59.334341 C 193.40132,52.184461 197.05472,46.334559 197.44967,46.334559 C 197.84463,46.334559 199.14469,47.915251 200.33871,49.847209 C 202.41775,53.211169 205.07037,55.334559 207.19372,55.334559 C 211.82615,55.334559 215.68024,39.652994 215.36563,22.084554 C 215.262,16.297484 215.55662,14.344434 216.52887,14.373554 C 219.32157,14.457214 228.73745,30.331574 229.94532,36.992544 C 230.21478,38.478574 230.65581,40.051274 230.92537,40.487436 C 231.19494,40.923598 231.63151,42.967683 231.89553,45.029848 C 232.35333,48.605548 234.33089,52.22867 234.33089,49.491718 C 234.33089,46.621457 252.13392,30.470914 253.63889,31.975894 C 253.91392,32.250914 253.5184,33.672014 252.75997,35.133894 C 251.12413,38.286976 251.60507,56.883303 253.37938,59.084559 C 253.49021,59.222059 253.64403,59.672059 253.7212,60.084559 C 255.07075,67.298148 263.35755,61.340104 265.35459,51.720382 C 266.90778,44.238701 266.73393,27.824554 265.00793,18.990694 C 264.91056,18.492314 265.39339,17.878304 266.08089,17.626224 C 266.76839,17.374144 267.33089,17.655394 267.33089,18.251224 C 267.33089,18.847054 267.94728,19.334554 268.70065,19.334554 C 270.83633,19.334554 277.72169,25.829614 280.87579,30.819524 C 282.44545,33.302794 284.05508,35.334554 284.45275,35.334554 C 284.85042,35.334554 285.69423,33.763644 286.32789,31.843634 C 286.96155,29.923624 288.98553,26.886124 290.82562,25.093634 C 298.06932,18.037314 298.61792,18.146204 297.68303,26.454684 C 296.12529,40.298343 297.50293,53.572595 300.77961,56.292004 C 301.9665,57.277028 302.39567,56.807714 303.26695,53.572023 C 304.68601,48.302014 311.66591,37.680391 314.24866,36.860654 C 315.39389,36.497174 316.33089,35.828964 316.33089,35.375754 C 316.33089,34.250274 324.24249,31.161884 325.3586,31.851684 C 325.88474,32.176864 325.88661,33.372914 325.36311,34.749804 C 324.61335,36.721824 324.65996,49.812991 325.43212,54.133112 C 325.80259,56.205788 333.35948,64.334559 334.91588,64.334559 C 335.69551,64.334559 336.3629,63.324247 336.40217,62.084559 C 336.54211,57.66752 337.43197,51.771691 338.55293,47.834559 C 339.17931,45.634559 339.77934,43.497059 339.88634,43.084559 C 339.99334,42.672059 340.17058,42.222059 340.2802,42.084559 C 340.38982,41.947059 340.67095,40.804377 340.90492,39.545266 C 341.96342,33.849134 349.42596,22.056754 356.19105,15.389984 C 361.17676,10.476734 362.44758,11.119884 359.56059,17.095264 C 357.21799,21.943884 357.29374,35.133604 359.72766,46.187453 C 362.09712,56.948537 362.56567,57.323455 365.25659,50.611491 C 368.33203,42.940427 373.45882,34.334554 374.95328,34.334554 C 377.15129,34.334554 381.29377,40.399053 382.92231,46.001038 C 384.64936,51.941873 385.41114,51.956683 387.2872,46.085894 C 387.94605,44.024128 390.36291,40.374182 392.658,37.974901 C 396.80478,33.639864 406.33089,26.626774 406.33089,27.908964 C 406.33089,28.277734 406.93479,28.078254 407.6729,27.465684 C 408.411,26.853104 409.311,26.648004 409.6729,27.009904 C 410.03479,27.371794 410.33089,27.142894 410.33089,26.501224 C 410.33089,25.859554 410.66839,25.406004 411.08089,25.493314 C 411.49339,25.580634 412.60354,25.313184 413.5479,24.898984 C 414.49226,24.484784 415.84226,24.383064 416.5479,24.672924 C 417.35569,25.004754 416.99752,25.453274 415.58089,25.883884 C 414.34339,26.260054 413.33089,26.857434 413.33089,27.211404 C 413.33089,27.565384 412.30281,28.975394 411.04627,30.344774 C 409.78972,31.714154 407.76813,35.160054 406.55385,38.002325 C 403.02885,46.253223 400.95016,65.363189 403.41215,66.884781 C 405.7446,68.326313 415.84305,56.023781 416.97561,50.360962 C 417.31309,48.67355 417.95284,47.068207 418.39727,46.793532 C 419.95074,45.833438 429.00394,66.436531 427.84943,68.304564 C 427.59947,68.709007 427.94851,69.796948 428.62508,70.722211 C 429.73339,72.237911 430.28883,71.98784 434.23401,68.196953 C 442.72799,60.035182 446.45219,47.384064 446.51903,26.464754 L 446.55939,13.834554 L 449.86257,17.655654 C 453.94915,22.382964 457.89969,30.333094 460.25522,38.569972 C 462.23593,45.496123 462.33089,45.897112 462.33089,47.334559 C 462.33089,49.429781 463.93027,48.173662 466.55726,44.015271 C 469.12265,39.954368 476.50032,32.334554 477.86678,32.334554 C 478.20944,32.334554 478.1761,33.762804 477.7927,35.508444 C 476.16744,42.908181 476.99254,50.20497 480.18865,56.697187 C 481.88983,60.15277 484.1843,63.79691 485.28748,64.795276 C 487.23757,66.56008 487.31946,66.544176 488.23652,64.222522 C 489.31518,61.491741 489.03668,41.723579 487.88237,39.084559 C 485.60997,33.889354 494.12049,41.037298 499.01709,48.436557 C 502.38832,53.530827 503.53689,52.070295 502.83274,43.584559 C 502.52173,39.836547 502.70444,37.334554 503.28917,37.334554 C 505.76399,37.334554 516.00678,50.151384 520.28763,58.604765 C 522.59163,63.154471 523.63879,60.209283 523.47627,49.636534 C 523.31107,38.88868 522.8624,34.510674 521.42128,29.584554 C 520.89835,27.797054 520.625,26.334554 520.81384,26.334554 C 521.00268,26.334554 520.33763,24.649654 519.33596,22.590324 C 516.2172,16.178494 518.55902,16.144484 525.43635,22.501744 C 528.59074,25.417604 530.36573,27.809294 536.08568,36.851054 C 536.77582,37.941983 538.98767,42.322059 541.00091,46.584559 C 543.01415,50.847059 544.98821,54.334559 545.38771,54.334559 C 545.78721,54.334559 546.4171,53.097059 546.78748,51.584559 C 548.575,44.284792 556.60344,31.334554 559.34138,31.334554 C 559.68137,31.334554 559.83314,35.206984 559.67866,39.939949 C 559.45497,46.792914 559.7804,49.287538 561.2767,52.189949 C 563.74271,56.973325 568.91214,61.849992 573.58089,63.797298 C 577.26803,65.335181 577.33164,65.323458 577.37574,63.097979 C 577.50776,56.435853 578.85064,47.409163 580.68783,40.834559 C 580.84152,40.284559 581.31816,38.259559 581.74703,36.334554 C 583.49087,28.507294 594.19925,9.8695841 595.9479,11.618234 C 596.23084,11.901174 595.94183,14.065694 595.30565,16.428284 C 593.43086,23.390744 593.97409,35.241014 596.91727,51.584559 C 597.28869,53.647059 597.9837,55.334559 598.46173,55.334559 C 598.93977,55.334559 599.33089,54.932558 599.33089,54.441223 C 599.33089,53.080861 608.62945,39.334559 609.54966,39.334559 C 609.99293,39.334559 610.19127,41.922059 609.9904,45.084559 C 609.7429,48.981153 610.20401,52.330892 611.42096,55.476775 C 613.64049,61.214413 619.35828,70.640507 620.14309,69.855693 C 622.33046,67.668323 621.86909,50.807818 619.39295,42.442187 C 618.84069,40.576382 618.60814,38.694976 618.87618,38.261285 C 619.14421,37.827594 618.90617,37.190104 618.3472,36.844644 C 616.88108,35.938524 617.09747,34.334554 618.68583,34.334554 C 620.20913,34.334554 629.37992,43.689138 631.21123,47.110976 C 632.53618,49.586655 634.33089,50.077854 634.33089,47.964802 C 634.33089,45.606247 641.04697,38.806168 646.04473,36.104444 C 651.11012,33.366164 659.17641,30.846744 660.0574,31.727734 C 660.34594,32.016284 659.2354,33.385474 657.58953,34.770384 C 655.94366,36.155294 653.58877,39.632169 652.35645,42.496776 C 650.46273,46.898848 650.19959,48.876237 650.65665,55.269856 C 651.18485,62.658637 652.80805,70.08282 654.2236,71.584341 C 654.61237,71.996721 658.26071,66.484221 662.33101,59.334341 C 666.40132,52.184461 670.05472,46.334559 670.44967,46.334559 C 670.84463,46.334559 672.14469,47.915251 673.33871,49.847209 C 675.41775,53.211169 678.07037,55.334559 680.19372,55.334559 C 684.82615,55.334559 688.68024,39.652994 688.36563,22.084554 C 688.262,16.297484 688.55662,14.344434 689.52887,14.373554 C 692.32157,14.457214 701.73745,30.331574 702.94532,36.992544 C 703.21478,38.478574 703.65581,40.051274 703.92537,40.487436 C 704.19494,40.923598 704.63151,42.967683 704.89553,45.029848 C 705.35333,48.605548 707.33089,52.22867 707.33089,49.491718 C 707.33089,46.621457 725.13392,30.470914 726.63889,31.975894 C 726.91392,32.250914 726.5184,33.672014 725.75997,35.133894 C 724.12413,38.286976 724.60507,56.883303 726.37938,59.084559 C 726.49021,59.222059 726.64403,59.672059 726.7212,60.084559 C 728.07075,67.298148 736.35755,61.340104 738.35459,51.720382 C 739.90778,44.238701 739.73393,27.824554 738.00793,18.990694 C 737.91056,18.492314 738.39339,17.878304 739.08089,17.626224 C 739.76839,17.374144 740.33089,17.655394 740.33089,18.251224 C 740.33089,18.847054 740.94728,19.334554 741.70065,19.334554 C 743.83633,19.334554 750.72169,25.829614 753.87579,30.819524 C 755.44545,33.302794 757.05508,35.334554 757.45275,35.334554 C 757.85042,35.334554 758.69423,33.763644 759.32789,31.843634 C 759.96155,29.923624 761.98553,26.886124 763.82562,25.093634 C 771.06932,18.037314 771.61792,18.146204 770.68303,26.454684 C 769.12529,40.298343 770.50293,53.572595 773.77961,56.292004 C 774.96587,57.276505 775.39282,56.818296 776.2478,53.643116 C 777.45446,49.161947 782.67471,40.594864 785.71693,38.103096 C 786.87961,37.150794 788.4035,35.886104 789.10336,35.292684 C 791.17869,33.532964 797.34568,31.225664 798.3367,31.838144 C 798.88388,32.176324 798.89455,33.352014 798.36311,34.749804 C 797.61335,36.721824 797.65996,49.812991 798.43212,54.133112 C 798.80259,56.205788 806.35948,64.334559 807.91588,64.334559 C 808.69551,64.334559 809.3629,63.324247 809.40217,62.084559 C 809.54211,57.66752 810.43197,51.771691 811.55293,47.834559 C 812.17931,45.634559 812.77934,43.497059 812.88634,43.084559 C 812.99334,42.672059 813.17058,42.222059 813.2802,42.084559 C 813.38982,41.947059 813.67095,40.804377 813.90492,39.545266 C 814.45238,36.599184 817.78414,30.049764 821.64275,24.334554 C 824.60131,19.952494 832.71573,11.334554 833.88322,11.334554 C 834.57413,11.334554 833.60355,14.830204 831.93965,18.334554 C 830.30406,21.779294 830.73819,37.182154 832.72469,46.187453 C 835.09864,56.949218 835.56589,57.322893 838.25659,50.611491 C 841.33203,42.940427 846.45882,34.334554 847.95328,34.334554 C 850.15129,34.334554 854.29377,40.399053 855.92231,46.001038 C 857.64945,51.942187 858.41111,51.95676 860.28764,46.084559 C 860.94673,44.022059 861.9011,42.334559 862.40844,42.334559 C 862.91579,42.334559 863.33089,41.758579 863.33089,41.054604 C 863.33089,40.350629 864.79339,38.41174 866.58089,36.745964 C 870.50399,33.090004 879.33089,26.972104 879.33089,27.908964 C 879.33089,28.277734 879.93479,28.078254 880.6729,27.465684 C 881.411,26.853104 882.311,26.648004 882.6729,27.009904 C 883.03479,27.371794 883.33089,27.142894 883.33089,26.501224 C 883.33089,25.859554 883.66839,25.406004 884.08089,25.493314 C 884.49339,25.580634 885.60354,25.313184 886.5479,24.898984 C 887.49226,24.484784 888.84226,24.383064 889.5479,24.672924 C 890.35569,25.004754 889.99752,25.453274 888.58089,25.883884 C 887.34339,26.260054 886.33089,26.857434 886.33089,27.211404 C 886.33089,27.565384 885.30281,28.975394 884.04627,30.344774 C 882.78972,31.714154 880.76813,35.160054 879.55385,38.002325 C 876.02885,46.253223 873.95016,65.363189 876.41215,66.884781 C 878.7446,68.326313 888.84305,56.023781 889.97561,50.360962 C 890.31309,48.67355 890.95284,47.068207 891.39727,46.793532 C 892.95074,45.833438 902.00394,66.436531 900.84943,68.304564 C 900.59947,68.709007 900.94851,69.796948 901.62508,70.722211 C 902.73339,72.237911 903.28883,71.98784 907.23401,68.196953 C 915.72799,60.035182 919.45219,47.384064 919.51903,26.464754 L 919.55939,13.834554 L 922.86257,17.655654 C 927.02568,22.471494 930.90827,30.363104 933.39821,39.069972 C 934.46219,42.790495 935.3323,45.947059 935.3318,46.084559 C 935.3313,46.222059 935.33089,46.784559 935.33089,47.334559 C 935.33089,49.429781 936.93027,48.173662 939.55726,44.015271 C 942.12265,39.954368 949.50032,32.334554 950.86678,32.334554 C 951.20944,32.334554 951.1761,33.762804 950.7927,35.508444 C 949.16744,42.908181 949.99254,50.20497 953.18865,56.697187 C 954.88983,60.15277 957.1843,63.79691 958.28748,64.795276 C 960.23757,66.56008 960.31946,66.544176 961.23652,64.222522 C 962.31518,61.491741 962.03668,41.723579 960.88237,39.084559 C 958.5757,33.811004 966.75817,40.734888 972.22809,48.685142 C 981.2913,61.858074 984.92381,72.657783 983.93837,83.500641 C 983.60515,87.166987 983.05901,90.879487 982.72472,91.750641 C 982.18573,93.155231 978.04573,93.334559 946.15816,93.334559 C 924.31301,93.334559 909.47254,93.723564 908.3475,94.32567 C 906.05954,95.550146 592.14341,96.03775 258.83089,95.334559 z"
     id="path3100" />
</svg>
